<svg xmlns="http://www.w3.org/2000/svg" width="65.641" height="50" viewBox="0 0 65.641 50"><defs><style>.a{fill:#f8af1d;}</style></defs><g transform="translate(0 -61)"><g transform="translate(0 61)"><path class="a" d="M59.872,61H5.769A5.779,5.779,0,0,0,0,66.769v38.462A5.779,5.779,0,0,0,5.769,111h54.1a5.779,5.779,0,0,0,5.769-5.769V66.769A5.779,5.779,0,0,0,59.872,61Zm-.8,3.846L32.943,90.979,6.584,64.846ZM3.846,104.434V67.547L22.369,85.911Zm2.72,2.719L25.1,88.619l6.494,6.439a1.923,1.923,0,0,0,2.714-.006l6.332-6.332,18.434,18.434Zm55.229-2.72L43.361,86,61.795,67.566Z" transform="translate(0 -61)"/></g></g></svg>