<svg xmlns="http://www.w3.org/2000/svg" xmlns:xlink="http://www.w3.org/1999/xlink" width="39.001" height="31.468" viewBox="0 0 39.001 31.468"><defs><style>.a{fill:#fff;}.b{filter:url(#a);}</style><filter id="a" x="0" y="0" width="39.001" height="31.468" filterUnits="userSpaceOnUse"><feOffset dy="3" input="SourceAlpha"/><feGaussianBlur stdDeviation="1.5" result="b"/><feFlood flood-opacity="0.302"/><feComposite operator="in" in2="b"/><feComposite in="SourceGraphic"/></filter></defs><g class="b" transform="matrix(1, 0, 0, 1, 0, 0)"><path class="a" d="M688.761-916.531A2.764,2.764,0,0,1,686-919.292a2.764,2.764,0,0,1,2.761-2.762h24.478A2.765,2.765,0,0,1,716-919.292a2.765,2.765,0,0,1-2.761,2.761Zm0-8.473A2.764,2.764,0,0,1,686-927.765a2.764,2.764,0,0,1,2.761-2.762h24.478A2.765,2.765,0,0,1,716-927.765,2.765,2.765,0,0,1,713.239-925Zm0-8.473A2.764,2.764,0,0,1,686-936.238,2.764,2.764,0,0,1,688.761-939h24.478A2.765,2.765,0,0,1,716-936.238a2.765,2.765,0,0,1-2.761,2.761Z" transform="translate(-681.5 940.5)"/></g></svg>