<svg xmlns="http://www.w3.org/2000/svg" width="50" height="50" viewBox="0 0 50 50"><defs><style>.a{fill:#f8af1d;}</style></defs><path class="a" d="M35.935,50a13.93,13.93,0,0,1-4.779-.854A50.963,50.963,0,0,1,12.65,37.35,50.959,50.959,0,0,1,.854,18.844a13.83,13.83,0,0,1-.706-6.8A14.182,14.182,0,0,1,7.437,1.665,13.923,13.923,0,0,1,14.1,0a1.563,1.563,0,0,1,1.528,1.235L18.084,12.68a1.563,1.563,0,0,1-.423,1.432L13.47,18.3A41.128,41.128,0,0,0,31.7,36.53l4.19-4.191a1.563,1.563,0,0,1,1.432-.423l11.445,2.452A1.562,1.562,0,0,1,50,35.9a13.922,13.922,0,0,1-1.665,6.666,14.182,14.182,0,0,1-10.381,7.289A13.9,13.9,0,0,1,35.935,50ZM12.855,3.193A10.948,10.948,0,0,0,3.791,17.777,47.391,47.391,0,0,0,32.223,46.209a10.948,10.948,0,0,0,14.584-9.064l-9.31-2-4.376,4.376a1.562,1.562,0,0,1-1.769.309A44.242,44.242,0,0,1,10.165,18.649a1.562,1.562,0,0,1,.309-1.769L14.85,12.5Z" transform="translate(0)"/></svg>